<svg width="77" height="20" viewBox="0 0 77 20" fill="none" xmlns="http://www.w3.org/2000/svg">
<g filter="url(#filter0_d_1_3)">
<path d="M10.216 9.472C10.216 10.3893 10.0027 11.04 9.576 11.424C9.16 11.808 8.46667 12 7.496 12H4.36V0.799999H7.304C8.264 0.799999 8.98933 0.997333 9.48 1.392C9.97067 1.776 10.216 2.41067 10.216 3.296V9.472ZM8.824 3.152C8.824 2.8 8.71733 2.52267 8.504 2.32C8.29067 2.10667 8.008 2 7.656 2H5.752V10.8H7.64C8.04533 10.8 8.344 10.7093 8.536 10.528C8.728 10.336 8.824 10.0373 8.824 9.632V3.152ZM15.2619 12C14.3232 12 13.6352 11.8027 13.1979 11.408C12.7605 11.0027 12.5419 10.3467 12.5419 9.44V6.56C12.5419 5.64267 12.7392 4.98667 13.1339 4.592C13.5285 4.19733 14.1845 4 15.1019 4H15.5339C16.2912 4 16.8619 4.21333 17.2459 4.64C17.6405 5.056 17.8379 5.66933 17.8379 6.48V8.56H13.9019V9.76C13.9019 10.0907 14.0032 10.3467 14.2059 10.528C14.4085 10.7093 14.7072 10.8 15.1019 10.8H17.3259V12H15.2619ZM16.5099 7.36V6.16C16.5099 5.88267 16.4192 5.65333 16.2379 5.472C16.0565 5.29067 15.8272 5.2 15.5499 5.2H14.9419C14.5579 5.2 14.2859 5.29067 14.1259 5.472C13.9765 5.64267 13.9019 5.89867 13.9019 6.24V7.36H16.5099ZM23.3286 12H21.3606L19.2006 4H20.6566L22.3846 10.864L24.0646 4H25.4726L23.3286 12ZM30.1113 12C29.1833 12 28.4686 11.776 27.9673 11.328C27.4766 10.8693 27.2313 10.1867 27.2313 9.28V3.52C27.2313 2.61333 27.4766 1.936 27.9673 1.488C28.4686 1.02933 29.1833 0.799999 30.1113 0.799999H32.2713V2.016H29.9513C29.5566 2.016 29.2366 2.13333 28.9913 2.368C28.7459 2.60267 28.6233 2.88533 28.6233 3.216V9.584C28.6233 9.91467 28.7459 10.1973 28.9913 10.432C29.2366 10.6667 29.5566 10.784 29.9513 10.784H31.4233V7.312H30.0793V6.112H32.7513V12H30.1113ZM39.139 11.632C38.787 11.8773 38.3603 12 37.859 12H37.635C36.771 12 36.1257 11.7973 35.699 11.392C35.283 10.9867 35.075 10.336 35.075 9.44V4H36.435V9.76C36.435 10.08 36.5257 10.336 36.707 10.528C36.899 10.7093 37.155 10.8 37.475 10.8H38.019C38.3603 10.8 38.611 10.7147 38.771 10.544C38.9417 10.3733 39.0377 10.1813 39.059 9.968V4H40.419V12H39.139V11.632ZM47.2071 10C47.2071 10.672 46.9991 11.1733 46.5831 11.504C46.1778 11.8347 45.5858 12 44.8071 12H42.7431V10.8H44.9671C45.2551 10.8 45.4738 10.7413 45.6231 10.624C45.7725 10.496 45.8471 10.3147 45.8471 10.08V9.232C45.8471 8.752 45.6178 8.512 45.1591 8.512H44.8871C44.1405 8.512 43.5805 8.352 43.2071 8.032C42.8445 7.70133 42.6631 7.184 42.6631 6.48V6.016C42.6631 5.30133 42.8658 4.78933 43.2711 4.48C43.6765 4.16 44.2738 4 45.0631 4H46.8871V5.2H44.9031C44.6365 5.2 44.4231 5.264 44.2631 5.392C44.1031 5.50933 44.0231 5.68533 44.0231 5.92V6.496C44.0231 6.74133 44.0925 6.92267 44.2311 7.04C44.3805 7.15733 44.5671 7.216 44.7911 7.216H45.0151C45.7298 7.216 46.2738 7.392 46.6471 7.744C47.0205 8.08533 47.2071 8.59733 47.2071 9.28V10ZM54.0938 12C53.9551 12 53.8004 11.9573 53.6298 11.872C53.4698 11.7867 53.3311 11.6693 53.2138 11.52C52.9684 11.84 52.6431 12 52.2378 12H51.1338C50.3231 12 49.7311 11.84 49.3578 11.52C48.9951 11.1893 48.8138 10.6293 48.8138 9.84V9.52C48.8138 7.86667 49.5924 7.04 51.1498 7.04H52.8138V6.24C52.8138 5.90933 52.7124 5.65333 52.5098 5.472C52.3071 5.29067 52.0084 5.2 51.6138 5.2H49.4538V4H51.4538C52.3818 4 53.0644 4.20267 53.5018 4.608C53.9498 5.01333 54.1738 5.664 54.1738 6.56V10.4C54.1738 10.56 54.2324 10.6827 54.3498 10.768C54.4778 10.8427 54.6858 10.88 54.9738 10.88V12H54.0938ZM52.0778 10.8C52.3978 10.8 52.6004 10.7253 52.6858 10.576C52.7711 10.4267 52.8138 10.2347 52.8138 10V8.24H51.1338C50.8564 8.24 50.6271 8.33067 50.4457 8.512C50.2644 8.69333 50.1738 8.92267 50.1738 9.2V10C50.1738 10.2773 50.2378 10.48 50.3658 10.608C50.4938 10.736 50.6964 10.8 50.9738 10.8H52.0778ZM58.1694 12C57.8067 12 57.4867 11.872 57.2094 11.616C56.9427 11.36 56.8094 10.9547 56.8094 10.4V0.799999H58.1694V10.32C58.1694 10.4907 58.212 10.6133 58.2974 10.688C58.3827 10.7627 58.5267 10.8 58.7294 10.8H59.0494V12H58.1694ZM63.4494 12C62.5107 12 61.8227 11.8027 61.3854 11.408C60.948 11.0027 60.7294 10.3467 60.7294 9.44V6.56C60.7294 5.64267 60.9267 4.98667 61.3214 4.592C61.716 4.19733 62.372 4 63.2894 4H63.7214C64.4787 4 65.0494 4.21333 65.4334 4.64C65.828 5.056 66.0254 5.66933 66.0254 6.48V8.56H62.0894V9.76C62.0894 10.0907 62.1907 10.3467 62.3934 10.528C62.596 10.7093 62.8947 10.8 63.2894 10.8H65.5134V12H63.4494ZM64.6974 7.36V6.16C64.6974 5.88267 64.6067 5.65333 64.4254 5.472C64.244 5.29067 64.0147 5.2 63.7374 5.2H63.1294C62.7454 5.2 62.4734 5.29067 62.3134 5.472C62.164 5.64267 62.0894 5.89867 62.0894 6.24V7.36H64.6974ZM72.5665 10C72.5665 10.672 72.3585 11.1733 71.9425 11.504C71.5372 11.8347 70.9452 12 70.1665 12H68.1025V10.8H70.3265C70.6145 10.8 70.8332 10.7413 70.9825 10.624C71.1318 10.496 71.2065 10.3147 71.2065 10.08V9.232C71.2065 8.752 70.9772 8.512 70.5185 8.512H70.2465C69.4998 8.512 68.9398 8.352 68.5665 8.032C68.2038 7.70133 68.0225 7.184 68.0225 6.48V6.016C68.0225 5.30133 68.2252 4.78933 68.6305 4.48C69.0358 4.16 69.6332 4 70.4225 4H72.2465V5.2H70.2625C69.9958 5.2 69.7825 5.264 69.6225 5.392C69.4625 5.50933 69.3825 5.68533 69.3825 5.92V6.496C69.3825 6.74133 69.4518 6.92267 69.5905 7.04C69.7398 7.15733 69.9265 7.216 70.1505 7.216H70.3745C71.0892 7.216 71.6332 7.392 72.0065 7.744C72.3798 8.08533 72.5665 8.59733 72.5665 9.28V10Z" fill="#02073E"/>
</g>
<defs>
<filter id="filter0_d_1_3" x="0.360001" y="0.800003" width="76.2065" height="19.2" filterUnits="userSpaceOnUse" color-interpolation-filters="sRGB">
<feFlood flood-opacity="0" result="BackgroundImageFix"/>
<feColorMatrix in="SourceAlpha" type="matrix" values="0 0 0 0 0 0 0 0 0 0 0 0 0 0 0 0 0 0 127 0" result="hardAlpha"/>
<feOffset dy="4"/>
<feGaussianBlur stdDeviation="2"/>
<feComposite in2="hardAlpha" operator="out"/>
<feColorMatrix type="matrix" values="0 0 0 0 0 0 0 0 0 0 0 0 0 0 0 0 0 0 0.25 0"/>
<feBlend mode="normal" in2="BackgroundImageFix" result="effect1_dropShadow_1_3"/>
<feBlend mode="normal" in="SourceGraphic" in2="effect1_dropShadow_1_3" result="shape"/>
</filter>
</defs>
</svg>
